<svg fill="#000000" xmlns="http://www.w3.org/2000/svg" viewBox="0 0 64 64" width="64px" height="64px"><path d="M51,6H13c-3.86,0-7,3.141-7,7v38c0,3.859,3.14,7,7,7h38c3.86,0,7-3.141,7-7V13C58,9.141,54.86,6,51,6z M56,51c0,2.757-2.243,5-5,5H13c-2.757,0-5-2.243-5-5V24h12.527C18.939,26.27,18,29.026,18,32c0,7.72,6.28,14,14,14s14-6.28,14-14c0-2.974-0.939-5.73-2.527-8H56V51z M32,20c6.617,0,12,5.383,12,12s-5.383,12-12,12s-12-5.383-12-12S25.383,20,32,20z M56,22H42c-0.064,0-0.225-0.007-0.248-0.029C39.229,19.517,35.79,18,32,18c-3.805,0-7.256,1.529-9.782,4c-0.012,0.012-0.154,0-0.218,0H8v-9c0-2.757,2.243-5,5-5h1v3c0,0.553,0.448,1,1,1s1-0.447,1-1V8h35c2.757,0,5,2.243,5,5V22z"/><path d="M32 42c5.514 0 10-4.486 10-10s-4.486-10-10-10-10 4.486-10 10S26.486 42 32 42zM32 24c4.411 0 8 3.589 8 8s-3.589 8-8 8-8-3.589-8-8S27.589 24 32 24zM51 10h-4c-1.654 0-3 1.346-3 3v2c0 1.654 1.346 3 3 3h4c1.654 0 3-1.346 3-3v-2C54 11.346 52.654 10 51 10zM52 15c0 .552-.449 1-1 1h-4c-.551 0-1-.448-1-1v-2c0-.552.449-1 1-1h4c.551 0 1 .448 1 1V15zM12 49c-.552 0-1 .447-1 1v2c0 .553.448 1 1 1s1-.447 1-1v-2C13 49.447 12.552 49 12 49zM17 49c-.552 0-1 .447-1 1v2c0 .553.448 1 1 1s1-.447 1-1v-2C18 49.447 17.552 49 17 49zM22 49c-.552 0-1 .447-1 1v2c0 .553.448 1 1 1s1-.447 1-1v-2C23 49.447 22.552 49 22 49zM27 49c-.552 0-1 .447-1 1v2c0 .553.448 1 1 1s1-.447 1-1v-2C28 49.447 27.552 49 27 49zM37 49c-.552 0-1 .447-1 1v2c0 .553.448 1 1 1s1-.447 1-1v-2C38 49.447 37.552 49 37 49zM32 49c-.552 0-1 .447-1 1v2c0 .553.448 1 1 1s1-.447 1-1v-2C33 49.447 32.552 49 32 49zM42 49c-.552 0-1 .447-1 1v2c0 .553.448 1 1 1s1-.447 1-1v-2C43 49.447 42.552 49 42 49zM46 52c0 .553.448 1 1 1s1-.447 1-1v-2c0-.553-.448-1-1-1s-1 .447-1 1V52zM52 53c.552 0 1-.447 1-1v-2c0-.553-.448-1-1-1s-1 .447-1 1v2C51 52.553 51.448 53 52 53zM15 14c-.552 0-1 .447-1 1v4c0 .553.448 1 1 1s1-.447 1-1v-4C16 14.447 15.552 14 15 14z"/></svg>